# xmcd
#
# Track frame offsets:
#	187
#	16022
#	31350
#	47077
#	61412
#	74217
#	87675
#	100775
#	118722
#	132995
#
# Disc length: 1968 seconds
#
# Revision: 6
# Processed by: cddbd v1.5.2PL0 Copyright (c) Steve Scherf et al.
# Submitted via: EZCDAudioConverter 6.0.3.1
#
DISCID=8d07ae0a
DTITLE=The Judds - Why Not Me
DYEAR=1984
DGENRE=Country
TTITLE0=Why Not Me
TTITLE1=Mr. Pain
TTITLE2=Drops Of Water
TTITLE3=Sleeping Heart
TTITLE4=My Baby's Gone
TTITLE5=Bye Bye Baby Blues
TTITLE6=Girls Night Out
TTITLE7=Love Is Alive
TTITLE8=Endless Sleep
TTITLE9=Mama He's Crazy
EXTD=
EXTT0=
EXTT1=
EXTT2=
EXTT3=
EXTT4=
EXTT5=
EXTT6=
EXTT7=
EXTT8=
EXTT9=
PLAYORDER=
